<svg xmlns="http://www.w3.org/2000/svg" width="1081.5" height="1080.5" viewBox="0 0 1081.5 1080.5">
  <g id="그룹_134" data-name="그룹 134" transform="translate(-4361 -10493)">
    <rect id="사각형_96" data-name="사각형 96" width="1080" height="1080" transform="translate(4361 10493)" fill="#b1defe"/>
    <path id="교차_6" data-name="교차 6" d="M125.5,1080V617.051c39.5-58.654,74.856-146.4,128.564-149.494,158.674-9.159,356.836,117.9,505.2,179.574,50.571,21.02,98.065,49.738,145.359,78.352L1205.5,907.531v170.281Q776.195,1059.929,346.473,1080Z" transform="translate(4236.498 10493)" fill="#214223" stroke="rgba(0,0,0,0)" stroke-miterlimit="10" stroke-width="1"/>
    <path id="교차_7" data-name="교차 7" d="M613.29,969.291l212.581-203.12c23.3-22.26,46.693-44.6,71.6-60.952,53.459-35.091,120.03-97.393,182.524-125.539v460.809a3038.889,3038.889,0,0,0-525.5,10.374C567.72,1013.481,591,990.59,613.29,969.291Z" transform="translate(4362 10493)" fill="#2e4b30" stroke="rgba(0,0,0,0)" stroke-miterlimit="10" stroke-width="1"/>
    <path id="교차_8" data-name="교차 8" d="M49.886,1080V867.961a156.232,156.232,0,0,1,32.477-22.136c49.477-25.432,84.089-107.26,145.305-109.552,142.188-5.319,319.76,68.487,452.711,104.307,45.317,12.209,87.875,28.892,130.254,45.514q159.625,62.6,319.253,125.211V1080Z" transform="translate(4312.114 10493)" fill="#0e1c0e" stroke="rgba(0,0,0,0)" stroke-miterlimit="10" stroke-width="1"/>
    <text id="_" data-name="🦊" transform="translate(4902 11057)" fill="#ef8354" font-size="450" font-family="SegoeUIEmoji, Segoe UI Emoji" letter-spacing="-0.05em"><tspan x="-308.936" y="0">🦊</tspan></text>
    <g id="그룹_116" data-name="그룹 116" transform="translate(-668.882 929.176) rotate(3)">
      <g id="그룹_97" data-name="그룹 97" transform="translate(5673.712 9788.361)">
        <path id="패스_95" data-name="패스 95" d="M555.484,3399.269c-9.95-4.042-20.246-24.349-13.931-33.945-5.409-.921-13.123-16.417-13.205-24-.055-5.008.381-10.234,2.692-14.5s14.817-17.708,19.072-16.339c-13.846-12.311-20.615-19.388-21.786-39.274-.29-4.92-.106-9.993,1.531-14.563,2.326-6.493,7.337-11.289,12.669-14.848,7.849-5.239,17.214-8.391,26.131-6.264s16.981,10.506,17.655,20.793a53.85,53.85,0,0,1,23.441-11.573c5.893-1.24,12.458-1.252,17.32,2.717s6.621,13.064,2.135,17.564c19.245-9.975,44.55-.914,55.226,19.774,4.829,9.357,6.379,22.376-.137,30.315-6.343,7.729-17.072,7.287-26.347,6.262,3.741,13.154-6.618,28.725-18.82,28.288,1.87,9.5-1.387,20.053-8.075,26.167a21.519,21.519,0,0,1-24.3,3.429c-.04,6.222-.22,16.006-4.711,19.595-5.909,4.721-21.489,7.3-20.87-3.89C581.185,3394.776,565.013,3403.14,555.484,3399.269Z" transform="translate(-528.212 -3234.862)" fill="#337238"/>
        <g id="그룹_13" data-name="그룹 13" transform="translate(25.321 28.067)">
          <path id="패스_96" data-name="패스 96" d="M645.311,3357.232c1.758-1.911,3.239-4.274,3.293-6.87.069-3.311-2.288-6.334-5.252-7.81-.112-.056-.226-.106-.339-.158l1.386,15.769Q644.871,3357.711,645.311,3357.232Z" transform="translate(-608.396 -3314.317)" fill="none"/>
          <path id="패스_97" data-name="패스 97" d="M644.953,3579.808c1.267-2.6,1.268-5.63.985-8.509a13.85,13.85,0,0,0-1.442-5.509,10.367,10.367,0,0,0-6.468-4.633,16.768,16.768,0,0,0-3.461-.51q.05,13.355.062,26.709a19.876,19.876,0,0,0,3.919-1.595A14.2,14.2,0,0,0,644.953,3579.808Z" transform="translate(-604.359 -3418.618)" fill="#4c341e"/>
          <path id="패스_98" data-name="패스 98" d="M634.889,3341.218a17.616,17.616,0,0,0-8.876-1.182,98.114,98.114,0,0,1,2.573,14.839c.181,2.075.259,4.182.237,6.289a15.659,15.659,0,0,0,7.452-4.177Z" transform="translate(-600.272 -3313.141)" fill="#4c341e"/>
          <path id="패스_99" data-name="패스 99" d="M630.848,3316.695l-.55-6.249c.13.065,4.875-8.34,6.418-10.882,6.568-10.819,4.15-9.566,1.886-10.946-3.842,4.4-10.522,17.5-13.412,22.983-4-3.427-4.195-10.01-6.089-15.914-1.692-.236-1.818,3.163-1.213,5.215,1.424,4.829,2.878,9.681,4.083,14.61A17.622,17.622,0,0,1,630.848,3316.695Z" transform="translate(-596.231 -3288.618)" fill="#825a32"/>
          <path id="패스_100" data-name="패스 100" d="M661.423,3307.85a37.8,37.8,0,0,0-16.718,7.907q-.847-9.545-1.694-19.091c.91-1.274,4.607-3.022,5.626-4.113.982-1.051-.281,0-.115-1.638a13.882,13.882,0,0,0-8.013,5.423c-.046-.136-1.162,14.879.674,26.389a167.249,167.249,0,0,0-27.214,25.088q-.626-7.126-1.254-14.254a15.663,15.663,0,0,1-7.452,4.177c-.087,8.239-1.805,16.474-5.854,22.752l-7.314-10.6c-1.953-3.021-.209-7.607,1.859-10.5s4.656-6.059,4.283-9.962l-6.741,7.147a48.127,48.127,0,0,0-4.19-22.424v24.625c0,3.208-.275,7.046-2.465,8.567l-3.229-7.354c-1.464.165-1.028,3.1-.153,4.623a271.842,271.842,0,0,0,16.177,24.921,22.092,22.092,0,0,1,3.237,5.44,26.367,26.367,0,0,1,1.14,7.509q.693,12.6,1.385,25.208a52.555,52.555,0,0,0-12.713-8.86,176.386,176.386,0,0,1-4.564-28.171c-1.242.136-1.469,2.34-1.338,3.938q.994,12.083,1.987,24.167a17.659,17.659,0,0,1-9.21-7.534c-1.738.848-.484,4.245.969,5.737a91.168,91.168,0,0,0,23.2,17.427c1.758.912,3.688,1.921,4.569,4.084a12.659,12.659,0,0,1,.6,4.641q.012,2.675.018,5.351a15.784,15.784,0,0,1,17.117,16.9c-.39,5.225-3.4,10-7.349,13.446a38.937,38.937,0,0,1-9.689,5.962q0,1.974,0,3.948c0,7.658-2.917,21.755,4.41,25.428,6.313,3.164,42.908.876,39.273-10.973l-28.9-94.229,17.526,4.068c1.278-1.356-.6-3.708-2.166-4.392l-13.4-5.834a4.566,4.566,0,0,1-2.466-1.9,7.229,7.229,0,0,1-.6-2.678l-.157-1.661a10.422,10.422,0,0,1-9.856-14.645,6.515,6.515,0,0,1,2.93-3.323c1.92-.934,4.15-.452,6.311-.451.861-1.226,1.982-2.765,3.278-1.934,1.884,1.209,17.845,6.076,25.082,6.789,3.774.371,8.866-1.145,8.939-6.024q-17.306-3.812-34.654-7.294a132.222,132.222,0,0,1,17.261-20.411c2.795-2.682,6.034-5.319,9.492-4.767,2.812.448,6.357,2.625,7.974-.376-2.785-2.491-7.1-2.723-9.884-5.214C651.939,3317.053,657.743,3311.786,661.423,3307.85Z" transform="translate(-576.71 -3289.716)" fill="#825a32"/>
          <path id="패스_101" data-name="패스 101" d="M651.663,3571.238a15.784,15.784,0,0,0-17.117-16.9q0,1.635.011,3.271a16.785,16.785,0,0,1,3.461.51,10.368,10.368,0,0,1,6.468,4.633,13.852,13.852,0,0,1,1.442,5.509c.283,2.879.282,5.909-.985,8.509a14.2,14.2,0,0,1-6.405,5.954,19.861,19.861,0,0,1-3.919,1.6q0,3.165.006,6.33a38.951,38.951,0,0,0,9.689-5.962C648.261,3581.237,651.273,3576.463,651.663,3571.238Z" transform="translate(-604.349 -3415.578)" fill="#9e6c3f"/>
          <path id="패스_102" data-name="패스 102" d="M643.859,3420a6.515,6.515,0,0,0-2.93,3.323,10.422,10.422,0,0,0,9.856,14.645q-.81-8.6-1.62-17.192a5.4,5.4,0,0,0,1-1.226C648.009,3419.552,645.779,3419.07,643.859,3420Z" transform="translate(-606.988 -3351.131)" fill="#4c341e"/>
        </g>
        <path id="패스_103" data-name="패스 103" d="M640.529,3495.448a.593.593,0,0,0,.845-.3,1.517,1.517,0,0,0-.029-1.015,5.157,5.157,0,0,0-1.021-2.18A7.892,7.892,0,0,0,640.529,3495.448Z" transform="translate(-581.735 -3357.723)" fill="#9e6c3f"/>
        <path id="패스_104" data-name="패스 104" d="M648.894,3504.136a.205.205,0,0,0,.051.139.2.2,0,0,0,.133.031,2.371,2.371,0,0,0,.771-.149.4.4,0,0,0,.209-.14.434.434,0,0,0,.036-.274l-.2-2.321a10.6,10.6,0,0,0-.3-1.979,1.545,1.545,0,0,0-.279-.59c-1.126-1.311-.808,1.145-.763,1.62Z" transform="translate(-585.683 -3360.839)" fill="#9e6c3f"/>
        <path id="패스_105" data-name="패스 105" d="M642.585,3514.895a3.717,3.717,0,0,0,1.323,2.868.768.768,0,0,0,.513-.513,2.029,2.029,0,0,0,.07-.749,25.185,25.185,0,0,0-.888-4.992c-.227-.916-1.243-.8-1.327.027A18.888,18.888,0,0,0,642.585,3514.895Z" transform="translate(-582.712 -3366.762)" fill="#9e6c3f"/>
        <path id="패스_106" data-name="패스 106" d="M657.6,3505.719a3.714,3.714,0,0,0,1.323,2.869.768.768,0,0,0,.512-.514,2.02,2.02,0,0,0,.07-.749,25.192,25.192,0,0,0-.888-4.992c-.227-.916-1.243-.8-1.326.027A18.786,18.786,0,0,0,657.6,3505.719Z" transform="translate(-589.887 -3362.378)" fill="#9e6c3f"/>
        <path id="패스_107" data-name="패스 107" d="M645.087,3483.2a3.719,3.719,0,0,0,1.323,2.869.769.769,0,0,0,.513-.513,2.031,2.031,0,0,0,.07-.75,25.19,25.19,0,0,0-.888-4.992c-.227-.916-1.243-.8-1.326.027A18.828,18.828,0,0,0,645.087,3483.2Z" transform="translate(-583.908 -3351.615)" fill="#9e6c3f"/>
        <path id="패스_108" data-name="패스 108" d="M650.935,3521.158a1.1,1.1,0,0,0,1.331-1.34,6.657,6.657,0,0,0-.464-2.719.389.389,0,0,0-.162-.2.41.41,0,0,0-.222-.017c-1.1.114-.847.481-.758,1.435C650.683,3518.556,650.912,3521.159,650.935,3521.158Z" transform="translate(-586.687 -3369.635)" fill="#9e6c3f"/>
        <path id="패스_109" data-name="패스 109" d="M649.394,3535.448c.027.189.088.418.273.464a.363.363,0,0,0,.29-.076,1.249,1.249,0,0,0,.318-1.194,9.931,9.931,0,0,0-1.152-3.67C648.354,3531.39,649.284,3534.681,649.394,3535.448Z" transform="translate(-585.85 -3376.371)" fill="#9e6c3f"/>
        <path id="패스_110" data-name="패스 110" d="M656.4,3531.836a2.592,2.592,0,0,0,1.086-.431.476.476,0,0,0,.173-.178.534.534,0,0,0,.016-.29l-.172-1.3c-.08-.607-.78-1.4-1.3-.624A15.487,15.487,0,0,0,656.4,3531.836Z" transform="translate(-589.358 -3375.28)" fill="#9e6c3f"/>
        <path id="패스_111" data-name="패스 111" d="M638.887,3475.952a2.589,2.589,0,0,0,1.085-.431.479.479,0,0,0,.173-.177.524.524,0,0,0,.016-.29l-.172-1.3c-.08-.608-.781-1.4-1.3-.625A15.442,15.442,0,0,0,638.887,3475.952Z" transform="translate(-580.987 -3348.573)" fill="#9e6c3f"/>
        <path id="패스_112" data-name="패스 112" d="M690.325,3593.571a2.058,2.058,0,0,1-2.211.276,1.56,1.56,0,0,1-.6-1.482,6.515,6.515,0,0,1,.99-3.989C689.169,3588.507,690.893,3592.96,690.325,3593.571Z" transform="translate(-604.34 -3403.804)" fill="#9e6c3f"/>
        <path id="패스_113" data-name="패스 113" d="M675.461,3613.173a.237.237,0,0,1-.028.243.7.7,0,0,1-.3.156,9.579,9.579,0,0,1-1.933.432,1.28,1.28,0,0,1-.592-.026.492.492,0,0,1-.266-.364l-1.049-3.505a10.44,10.44,0,0,1-.593-3.1,1.938,1.938,0,0,1,.275-1.081c1.814-2.826,2.681.968,2.887,1.687Z" transform="translate(-596.308 -3411.699)" fill="#9e6c3f"/>
        <path id="패스_114" data-name="패스 114" d="M696.9,3623.531a4.972,4.972,0,0,1,.291,2.279,8.12,8.12,0,0,1-1.542,2.951,1.981,1.981,0,0,1-1.56-.309,2.165,2.165,0,0,1-.664-1.017,25.021,25.021,0,0,1-1.19-7.915c-.065-1.506,2.428-2.192,3.176-1.073C696.357,3619.866,696.43,3621.935,696.9,3623.531Z" transform="translate(-606.596 -3417.909)" fill="#9e6c3f"/>
        <path id="패스_115" data-name="패스 115" d="M681.037,3639.519a5.482,5.482,0,0,1-3.044.351,1.741,1.741,0,0,1-1.011-1.161,6.676,6.676,0,0,1-.694-4.293.7.7,0,0,1,.254-.419,1.612,1.612,0,0,1,.517-.211c2.687-.755,2.335-.019,2.754,1.427C679.915,3635.57,681.09,3639.5,681.037,3639.519Z" transform="translate(-598.909 -3425.361)" fill="#9e6c3f"/>
        <path id="패스_116" data-name="패스 116" d="M695.6,3658.6a.743.743,0,0,1-.343.9,1.4,1.4,0,0,1-.74.132,1.668,1.668,0,0,1-1.549-1.447,10.82,10.82,0,0,1,.314-6.238C695.393,3651.9,695.354,3657.41,695.6,3658.6Z" transform="translate(-606.799 -3434.184)" fill="#9e6c3f"/>
        <path id="패스_117" data-name="패스 117" d="M675.375,3659.375a9.751,9.751,0,0,1-2.87.291,1.237,1.237,0,0,1-.53-.111.554.554,0,0,1-.23-.4l-.451-2.012a1.948,1.948,0,0,1,2.679-1.985C674.58,3655.393,675.311,3659.391,675.375,3659.375Z" transform="translate(-596.578 -3435.642)" fill="#9e6c3f"/>
      </g>
      <path id="패스_434" data-name="패스 434" d="M549.837,3282.911l-.388,7.7c-.1,2.018-.166,4.185.923,5.887,1.912,2.99,6.194,3.025,9.727,2.683a30.79,30.79,0,0,0,8.8-1.756,14.772,14.772,0,0,0,7.484-6.727,12.89,12.89,0,0,0,.839-9.96,17.768,17.768,0,0,0-3.091-5.279,11.906,11.906,0,0,0-4.254-3.648,14.384,14.384,0,0,0-5.776-.834C556.148,3270.92,550.254,3274.635,549.837,3282.911Z" transform="translate(5135.375 6536.243)" fill="#408443"/>
      <path id="패스_435" data-name="패스 435" d="M588.9,3335.96l3.083,2.913a6.624,6.624,0,0,0,2.712,1.82c1.8.442,3.06-.977,3.947-2.283a11.35,11.35,0,0,0,1.833-3.576,7.289,7.289,0,0,0-.612-4.935,8.656,8.656,0,0,0-3.89-3.882,10.512,10.512,0,0,0-3.092-.875,5.786,5.786,0,0,0-2.753.1,5.255,5.255,0,0,0-2.029,1.629C585.76,3329.514,585.585,3332.828,588.9,3335.96Z" transform="translate(5117.706 6510.41)" fill="#408443"/>
      <path id="패스_436" data-name="패스 436" d="M701.705,3401.754l-.445,6.344c-.116,1.663-.19,3.449,1.059,4.851,2.195,2.464,7.107,2.493,11.161,2.211a47.7,47.7,0,0,0,10.092-1.447,16.25,16.25,0,0,0,8.587-5.543,7.98,7.98,0,0,0,.963-8.208,14.543,14.543,0,0,0-3.548-4.352,13.429,13.429,0,0,0-4.88-3.006,22.529,22.529,0,0,0-6.627-.687C708.946,3391.872,702.183,3394.933,701.705,3401.754Z" transform="translate(5062.83 6478.445)" fill="#408443"/>
      <path id="패스_437" data-name="패스 437" d="M674.23,3442.47l-1.965,2.552a3.129,3.129,0,0,0-.913,2.344c.236,1.655,2.3,3.043,4.09,4.061a24.166,24.166,0,0,0,4.664,2.218,8.223,8.223,0,0,0,5.177.068,4.042,4.042,0,0,0,2.707-3.194,7.36,7.36,0,0,0-.277-2.83,6.8,6.8,0,0,0-1.216-2.636,11.4,11.4,0,0,0-2.6-2.147C680.055,3440.33,676.344,3439.727,674.23,3442.47Z" transform="translate(5077.104 6455.144)" fill="#408443"/>
      <path id="패스_438" data-name="패스 438" d="M571.581,3498.175l-2.283.423a2.027,2.027,0,0,0-1.594.889c-.629,1.121-.1,3.109.438,4.72a22.711,22.711,0,0,0,1.61,3.941,6.949,6.949,0,0,0,2.889,2.943,2.611,2.611,0,0,0,3-.391,5.533,5.533,0,0,0,1.146-1.847,5.815,5.815,0,0,0,.527-2.258,10.759,10.759,0,0,0-.48-2.743C575.852,3500.163,574.036,3497.72,571.581,3498.175Z" transform="translate(5126.764 6427.69)" fill="#408443"/>
      <path id="패스_439" data-name="패스 439" d="M562.881,3411.567l-1.507.279a1.338,1.338,0,0,0-1.052.586c-.416.74-.068,2.052.289,3.116a15,15,0,0,0,1.063,2.6,4.587,4.587,0,0,0,1.907,1.943,1.723,1.723,0,0,0,1.978-.258,3.661,3.661,0,0,0,.757-1.219,3.832,3.832,0,0,0,.348-1.491,7.086,7.086,0,0,0-.317-1.811C565.7,3412.879,564.5,3411.267,562.881,3411.567Z" transform="translate(5130.246 6469.071)" fill="#408443"/>
      <path id="패스_440" data-name="패스 440" d="M656.463,3311.854l-.267,6.082a8.84,8.84,0,0,0,.635,4.65c1.317,2.363,4.264,2.39,6.7,2.12a18.839,18.839,0,0,0,6.054-1.387,10.808,10.808,0,0,0,5.151-5.314,11.551,11.551,0,0,0,.577-7.869,14.635,14.635,0,0,0-2.128-4.171,8.619,8.619,0,0,0-2.927-2.882,8.731,8.731,0,0,0-3.975-.659C660.806,3302.381,656.75,3305.315,656.463,3311.854Z" transform="translate(5084.354 6521.213)" fill="#408443"/>
      <path id="패스_441" data-name="패스 441" d="M674.636,3269.02l-.111,1.588a1.546,1.546,0,0,0,.265,1.215c.55.617,1.78.624,2.795.554a11.92,11.92,0,0,0,2.527-.363,4.068,4.068,0,0,0,2.15-1.388,2,2,0,0,0,.241-2.055,3.637,3.637,0,0,0-.888-1.09,3.366,3.366,0,0,0-1.222-.752,5.652,5.652,0,0,0-1.659-.172C676.449,3266.546,674.756,3267.312,674.636,3269.02Z" transform="translate(5075.585 6538.353)" fill="#408443"/>
      <path id="패스_442" data-name="패스 442" d="M709.667,3470.034l-.111,1.589a1.545,1.545,0,0,0,.265,1.214c.549.617,1.779.624,2.794.553a11.893,11.893,0,0,0,2.527-.362,4.066,4.066,0,0,0,2.15-1.388,2,2,0,0,0,.241-2.055,3.638,3.638,0,0,0-.888-1.089,3.363,3.363,0,0,0-1.222-.753,5.623,5.623,0,0,0-1.659-.172C711.481,3467.56,709.788,3468.327,709.667,3470.034Z" transform="translate(5058.844 6442.29)" fill="#408443"/>
      <path id="패스_443" data-name="패스 443" d="M627.846,3292.7l.859,1.341a1.545,1.545,0,0,0,.938.816c.809.167,1.8-.561,2.572-1.224a11.9,11.9,0,0,0,1.811-1.8,4.066,4.066,0,0,0,.9-2.4,2,2,0,0,0-1.033-1.793,3.642,3.642,0,0,0-1.363-.344,3.369,3.369,0,0,0-1.43.125,5.626,5.626,0,0,0-1.434.853C627.824,3289.634,626.923,3291.26,627.846,3292.7Z" transform="translate(5098.061 6528.45)" fill="#408443"/>
      <path id="패스_444" data-name="패스 444" d="M572.985,3432.139l-1.81,2.665a3.127,3.127,0,0,0-.772,2.394c.334,1.638,2.477,2.9,4.325,3.81a24.145,24.145,0,0,0,4.788,1.936,8.222,8.222,0,0,0,5.171-.241,4.041,4.041,0,0,0,2.511-3.349,7.361,7.361,0,0,0-.445-2.809,6.81,6.81,0,0,0-1.372-2.559,11.412,11.412,0,0,0-2.727-1.988C578.672,3429.656,574.931,3429.274,572.985,3432.139Z" transform="translate(5125.357 6460.19)" fill="#408443"/>
      <g id="그룹_98" data-name="그룹 98" transform="translate(5705.622 9804.769)">
        <path id="패스_131" data-name="패스 131" d="M589.529,3291.9a11.982,11.982,0,0,0,4.258,6.119,6.336,6.336,0,0,0,1.873,1.157,5.342,5.342,0,0,0,2.546.153,9.484,9.484,0,0,0,7.707-7.4,6.142,6.142,0,0,0-.169-3.273,6.813,6.813,0,0,0-1.264-2.021c-2.1-2.459-6.792-5.6-10.213-4.467C590.637,3283.379,588.673,3288.459,589.529,3291.9Z" transform="translate(-589.33 -3273.764)" fill="#af2727"/>
        <path id="패스_132" data-name="패스 132" d="M601.154,3283.574a3.977,3.977,0,0,0-2.212,1.951.642.642,0,0,0,.251.975,4,4,0,0,0,3.21.6,1.018,1.018,0,0,0,.674-1.779,3.891,3.891,0,0,0-2.238-1.479" transform="translate(-593.863 -3274.548)" fill="#9b1f1f"/>
        <path id="패스_133" data-name="패스 133" d="M602.046,3266.286c.368.357,1.1.034,1.431.43a.939.939,0,0,1,.133.646c-.121,3-.023,6.122-.415,9.087-1.813.656-1.154-2.609-1.152-3.5Q602.049,3269.616,602.046,3266.286Z" transform="translate(-595.349 -3266.286)" fill="#4c341e"/>
      </g>
      <g id="그룹_99" data-name="그룹 99" transform="translate(5687.091 9868.468)">
        <path id="패스_134" data-name="패스 134" d="M572.493,3414.948c-1.29,2.206-3.719,3.722-6.33,4.725a7.73,7.73,0,0,1-2.412.589,7.3,7.3,0,0,1-2.935-.576c-4.138-1.612-7.069-5.549-6.977-9.37a5.28,5.28,0,0,1,.987-3.127,6.772,6.772,0,0,1,1.928-1.6c2.982-1.789,9.089-3.5,12.708-1.428A8.424,8.424,0,0,1,572.493,3414.948Z" transform="translate(-553.837 -3395.42)" fill="#af2727"/>
        <path id="패스_135" data-name="패스 135" d="M575.407,3404.894a4.507,4.507,0,0,1,2.045,2.522.713.713,0,0,1,0,.553.859.859,0,0,1-.521.322,5.366,5.366,0,0,1-3.8-.332c-.44-.214-.885-.545-.93-.969a1.123,1.123,0,0,1,.6-.948,4.679,4.679,0,0,1,2.906-.8" transform="translate(-562.611 -3396.225)" fill="#9b1f1f"/>
        <path id="패스_136" data-name="패스 136" d="M580.379,3388.372c-.505.241-1.266-.282-1.733.009a.829.829,0,0,0-.307.59,86.672,86.672,0,0,0-1.732,8.934c1.9,1.152,1.946-2.2,2.16-3.072Q579.567,3391.6,580.379,3388.372Z" transform="translate(-564.719 -3388.29)" fill="#4c341e"/>
      </g>
      <g id="그룹_100" data-name="그룹 100" transform="translate(5771.379 9841.458)">
        <path id="패스_137" data-name="패스 137" d="M724.323,3361.417a11.979,11.979,0,0,0,6.653-3.361,6.316,6.316,0,0,0,1.408-1.693,5.337,5.337,0,0,0,.507-2.5,9.485,9.485,0,0,0-6.248-8.665,6.145,6.145,0,0,0-3.265-.29,6.834,6.834,0,0,0-2.178.969c-2.728,1.732-6.5,5.942-5.851,9.489C716.037,3359.128,720.793,3361.784,724.323,3361.417Z" transform="translate(-715.276 -3340.497)" fill="#af2727"/>
        <path id="패스_138" data-name="패스 138" d="M730.147,3350.424a3.978,3.978,0,0,0-2.212,1.95.643.643,0,0,0,.251.976,4,4,0,0,0,3.21.6,1.018,1.018,0,0,0,.673-1.779,3.892,3.892,0,0,0-2.238-1.479" transform="translate(-721.265 -3343.185)" fill="#9b1f1f"/>
        <path id="패스_139" data-name="패스 139" d="M735.564,3336.558c.144.492.944.575,1.032,1.08a.942.942,0,0,1-.2.628c-1.586,2.548-3.044,5.311-4.849,7.7-1.9-.326.286-2.839.729-3.616Q733.923,3339.456,735.564,3336.558Z" transform="translate(-722.685 -3336.558)" fill="#4c341e"/>
      </g>
      <g id="그룹_101" data-name="그룹 101" transform="translate(5743.277 9808.147)">
        <path id="패스_140" data-name="패스 140" d="M669.661,3299.227a11.108,11.108,0,0,1-6.376-3.579,6.618,6.618,0,0,1-1.349-1.8,6.22,6.22,0,0,1-.486-2.661c.029-4.043,2.544-7.919,5.987-9.227a5.333,5.333,0,0,1,3.128-.309,6.231,6.231,0,0,1,2.087,1.032c2.613,1.844,6.227,6.327,5.606,10.1C677.6,3296.79,673.044,3299.617,669.661,3299.227Z" transform="translate(-661.45 -3276.951)" fill="#af2727"/>
        <path id="패스_141" data-name="패스 141" d="M675.5,3287.521a3.977,3.977,0,0,1,2.12,2.078.943.943,0,0,1,.109.571.853.853,0,0,1-.349.467,3.52,3.52,0,0,1-3.076.638,1.227,1.227,0,0,1-.929-.761,1.437,1.437,0,0,1,.284-1.133,3.728,3.728,0,0,1,2.145-1.575" transform="translate(-667.134 -3279.813)" fill="#9b1f1f"/>
        <path id="패스_142" data-name="패스 142" d="M669.23,3272.758c-.138.524-.9.613-.989,1.15a1.076,1.076,0,0,0,.2.668c1.52,2.713,2.917,5.655,4.646,8.195,1.821-.347-.274-3.022-.7-3.849Q670.8,3275.843,669.23,3272.758Z" transform="translate(-664.692 -3272.758)" fill="#4c341e"/>
      </g>
      <g id="그룹_102" data-name="그룹 102" transform="translate(5758.682 9885.818)">
        <path id="패스_143" data-name="패스 143" d="M700.281,3447.992a13.148,13.148,0,0,1-7.242-3.579,6.759,6.759,0,0,1-1.531-1.8,5.569,5.569,0,0,1-.552-2.662,10.12,10.12,0,0,1,6.8-9.227,6.831,6.831,0,0,1,3.553-.309,7.51,7.51,0,0,1,2.37,1.032c2.968,1.844,7.073,6.327,6.368,10.1C709.3,3445.555,704.123,3448.382,700.281,3447.992Z" transform="translate(-690.955 -3425.717)" fill="#af2727"/>
        <path id="패스_144" data-name="패스 144" d="M706.916,3436.287a4.3,4.3,0,0,1,2.408,2.077.852.852,0,0,1,.123.572.87.87,0,0,1-.4.466,4.429,4.429,0,0,1-3.494.638,1.367,1.367,0,0,1-1.055-.761,1.31,1.31,0,0,1,.322-1.134,4.243,4.243,0,0,1,2.436-1.575" transform="translate(-697.411 -3428.579)" fill="#9b1f1f"/>
        <path id="패스_145" data-name="패스 145" d="M699.792,3421.523c-.157.524-1.028.613-1.124,1.15a.989.989,0,0,0,.222.668c1.726,2.713,3.313,5.655,5.277,8.195,2.069-.346-.311-3.022-.794-3.85Q701.578,3424.609,699.792,3421.523Z" transform="translate(-694.637 -3421.523)" fill="#4c341e"/>
      </g>
    </g>
    <text id="멸종위기_동물_여우_알아보기_" data-name="멸종위기 동물
여우 알아보기!" transform="translate(4902 11188)" fill="#1e3419" stroke="#1e3419" stroke-linecap="round" stroke-linejoin="round" stroke-width="25" font-size="82" font-family="MalgunGothic, Malgun Gothic" letter-spacing="-0.1em"><tspan x="-232.631" y="0">멸종위기</tspan><tspan y="0" font-family="SegoeUI, Segoe UI"> </tspan><tspan y="0">동물</tspan><tspan y="0" font-family="SegoeUI, Segoe UI"></tspan><tspan font-size="107"><tspan x="-313.409" y="114">여우</tspan><tspan y="114" font-family="SegoeUI, Segoe UI"> </tspan><tspan y="114">알아보기</tspan><tspan y="114" font-family="SegoeUI, Segoe UI">!</tspan></tspan></text>
    <path id="교차_10" data-name="교차 10" d="M125.023,310.954c-37.553-17.615,0-44.418,0-44.418S80.631,288,42.957,276.414V177.545C93.249,150.786,174.811,136.316,215.345,141c66.772,7.709,38.139,54,38.139,54S363,123.8,385.848,206.735s-100.153,59.8-100.153,59.8-38.774,72.253-89.965,18c-2.351.034-23.8,30.581-52.614,30.583A42.171,42.171,0,0,1,125.023,310.954Z" transform="translate(4319.043 10493)" fill="#fff"/>
    <path id="교차_9" data-name="교차 9" d="M860.333,507.191c-37.553-14.352,0-36.192,0-36.192s-87.053,34.3-120.809-19.1,144.359-89.47,211.131-83.188,38.138,44,38.138,44,51.475-27.264,91.206-22.639v81.855c-27.989,3.824-58.995-.928-58.995-.928s-38.773,58.873-89.964,14.665c-2.351.028-23.8,24.917-52.614,24.918A50.291,50.291,0,0,1,860.333,507.191Z" transform="translate(4362 10493)" fill="#fff"/>
    <path id="패스_570" data-name="패스 570" d="M4540.694,9340.739c68.728-5.827,39.256-40.82,39.256-40.82s112.72,53.816,136.24-8.869-103.086-45.2-103.086-45.2-39.909-54.614-92.6-13.6c-2.9-.031-34.125-33.285-72.778-19.971s0,33.574,0,33.574-89.6-31.822-124.347,17.721S4471.967,9346.566,4540.694,9340.739Z" transform="translate(646.661 1357.863)" fill="#fff"/>
    <path id="패스_567" data-name="패스 567" d="M5333.382,9320.591c-48.217,6.313-56.015,34.333-16.25,47.23s96.014,22.583,95.949,0S5381.6,9314.278,5333.382,9320.591Z" transform="translate(0 1424)" fill="#fff"/>
    <path id="패스_565" data-name="패스 565" d="M5333.382,9320.591c-48.217,6.313-56.015,34.333-16.25,47.23s96.014,22.583,95.949,0S5381.6,9314.278,5333.382,9320.591Z" transform="translate(-707.392 1541.241)" fill="#fff"/>
    <path id="패스_572" data-name="패스 572" d="M5317.5,9320.5c-29.868,5.631-34.7,30.622-10.066,42.126s59.474,20.142,59.434,0S5347.368,9314.871,5317.5,9320.5Z" transform="translate(-734.74 1253)" fill="#fff"/>
    <path id="패스_568" data-name="패스 568" d="M5335.3,9320.719c-50.437,7.285-58.594,39.613-17,54.5s100.434,26.057,100.366,0S5385.74,9313.436,5335.3,9320.719Z" transform="matrix(0.899, -0.438, 0.438, 0.899, -4087.512, 4627.06)" fill="#fff"/>
    <path id="패스_573" data-name="패스 573" d="M5307.4,9320.215c-18.2,3.463-21.146,18.83-6.134,25.9s36.245,12.385,36.221,0S5325.605,9316.754,5307.4,9320.215Z" transform="matrix(-0.53, 0.848, -0.848, -0.53, 15650.723, 11021.401)" fill="#fff"/>
    <path id="패스_575" data-name="패스 575" d="M4520.065,10007.756c-8.185,1.875-8.185,7.121-8.185,7.121l40.334,5.651v-5.651l-10.121-2.793Z" transform="translate(0 1424)" fill="#1f3c1f"/>
    <path id="패스_542" data-name="패스 542" d="M4520.065,10007.756c-8.185,1.351-8.185,5.127-8.185,5.127l40.334,4.069v-4.069l-10.121-2.01Z" transform="translate(509 1401)" fill="#103110"/>
    <path id="패스_554" data-name="패스 554" d="M4520.065,10007.756c-8.185,1.351-8.185,5.127-8.185,5.127l40.334,4.069v-4.069l-10.121-2.01Z" transform="translate(833 1173)" fill="#103110"/>
    <path id="패스_555" data-name="패스 555" d="M4520.065,10007.756c-8.185,1.351-8.185,5.127-8.185,5.127l40.334,4.069v-4.069l-10.121-2.01Z" transform="translate(148.785 1071)" fill="#103110"/>
    <path id="패스_556" data-name="패스 556" d="M4520.065,10007.756c-8.185,1.351-8.185,5.127-8.185,5.127l40.334,4.069v-4.069l-10.121-2.01Z" transform="translate(868 1159)" fill="#103110"/>
    <path id="패스_557" data-name="패스 557" d="M4520.065,10007.756c-8.185,1.351-8.185,5.127-8.185,5.127l40.334,4.069v-4.069l-10.121-2.01Z" transform="translate(183.785 1057)" fill="#103110"/>
    <path id="패스_580" data-name="패스 580" d="M4520.065,10007.756c-8.185,1.351-8.185,5.127-8.185,5.127l40.334,4.069v-4.069l-10.121-2.01Z" transform="translate(-79.68 1066.196)" fill="#103110"/>
    <path id="패스_543" data-name="패스 543" d="M4520.065,10007.756c-8.185,1.351-8.185,5.127-8.185,5.127l40.334,4.069v-4.069l-10.121-2.01Z" transform="translate(237 1337.402)" fill="#103110"/>
    <path id="패스_544" data-name="패스 544" d="M4520.065,10007.756c-8.185,1.351-8.185,5.127-8.185,5.127l40.334,4.069v-4.069l-10.121-2.01Z" transform="translate(544 1422)" fill="#103110"/>
    <path id="패스_558" data-name="패스 558" d="M4520.065,10007.756c-8.185,1.351-8.185,5.127-8.185,5.127l40.334,4.069v-4.069l-10.121-2.01Z" transform="translate(868 1194)" fill="#103110"/>
    <path id="패스_559" data-name="패스 559" d="M4520.065,10007.756c-8.185,1.351-8.185,5.127-8.185,5.127l40.334,4.069v-4.069l-10.121-2.01Z" transform="translate(183.785 1092)" fill="#103110"/>
    <path id="패스_583" data-name="패스 583" d="M4520.065,10007.756c-8.185,1.351-8.185,5.127-8.185,5.127l40.334,4.069v-4.069l-10.121-2.01Z" transform="translate(-116.581 1101.196)" fill="#103110"/>
    <path id="패스_545" data-name="패스 545" d="M4520.065,10007.756c-8.185,1.351-8.185,5.127-8.185,5.127l40.334,4.069v-4.069l-10.121-2.01Z" transform="translate(866.162 1401)" fill="#103110"/>
    <path id="패스_576" data-name="패스 576" d="M4520.065,10007.756c-8.185,1.351-8.185,5.127-8.185,5.127l40.334,4.069v-4.069l-10.121-2.01Z" transform="translate(0 1250.731)" fill="#103110"/>
    <path id="패스_546" data-name="패스 546" d="M4520.065,10007.756c-8.185,1.351-8.185,5.127-8.185,5.127l40.334,4.069v-4.069l-10.121-2.01Z" transform="translate(272 1358.402)" fill="#103110"/>
    <path id="패스_547" data-name="패스 547" d="M4533.875,10007.756c-22,2.169-22,8.235-22,8.235l108.387,6.537v-6.537l-27.2-3.229Z" transform="translate(369.953 1422)" fill="#103110"/>
    <path id="패스_560" data-name="패스 560" d="M4533.875,10007.756c-22,2.169-22,8.235-22,8.235l108.387,6.537v-6.537l-27.2-3.229Z" transform="translate(757.775 1235.959)" fill="#103110"/>
    <path id="패스_561" data-name="패스 561" d="M4533.875,10007.756c-22,2.169-22,8.235-22,8.235l108.387,6.537v-6.537l-27.2-3.229Z" transform="translate(73.56 1133.959)" fill="#103110"/>
    <path id="패스_579" data-name="패스 579" d="M4533.875,10007.756c-22,2.169-22,8.235-22,8.235l108.387,6.537v-6.537l-27.2-3.229Z" transform="translate(-130.44 1194)" fill="#103110"/>
    <path id="패스_548" data-name="패스 548" d="M4533.875,10007.756c-22,2.169-22,8.235-22,8.235l108.387,6.537v-6.537l-27.2-3.229Z" transform="translate(627.775 1337.402)" fill="#103110"/>
    <path id="패스_549" data-name="패스 549" d="M4603.133,10007.756c-91.252,7.211-91.252,27.379-91.252,27.379l449.672,21.734v-10.395l-112.836-22.074Z" transform="translate(-122.539 1361.083)" fill="#103110"/>
    <path id="패스_574" data-name="패스 574" d="M4545.083,10007.756c-33.2,2.484-33.2,9.436-33.2,9.436l163.619,7.488v-7.488l-41.057-3.7Z" transform="translate(-68.052 1468.518)" fill="#103110"/>
    <text id="_멸종위기_동물_여우_알아보기_" data-name="  멸종위기 동물 
 여우 알아보기!" transform="translate(4892 11188)" fill="#fdfeff" font-size="82" font-family="SegoeUI, Segoe UI" letter-spacing="-0.1em"><tspan x="-254.024" y="0" xml:space="preserve">  </tspan><tspan y="0" font-family="MalgunGothic, Malgun Gothic">멸종위기</tspan><tspan y="0"> </tspan><tspan y="0" font-family="MalgunGothic, Malgun Gothic">동물</tspan><tspan y="0" fill="#65b249"> </tspan><tspan fill="#65b249" font-size="107"><tspan x="-322.714" y="114"> </tspan><tspan y="114" font-family="MalgunGothic, Malgun Gothic">여우</tspan><tspan y="114"> </tspan><tspan y="114" font-family="MalgunGothic, Malgun Gothic">알아보기</tspan><tspan y="114">!</tspan></tspan></text>
    <path id="패스_541" data-name="패스 541" d="M4545.083,10007.756c-33.2,2.484-33.2,9.436-33.2,9.436l163.619,7.488v-7.488l-41.057-3.7Z" transform="translate(322.808 1519.184)" fill="#103110"/>
    <path id="패스_550" data-name="패스 550" d="M4597.9,10007.757c-86.017,3.67-86.017,13.935-86.017,13.935l448.347,4.473-16.56-6.646-114.27-3.29Z" transform="translate(478.339 1476.979)" fill="#103110"/>
    <path id="패스_578" data-name="패스 578" d="M4585.44,9921.158c-5.587,9.441,4.363,27.072,13.8,12.328S4591.028,9911.717,4585.44,9921.158Z" transform="translate(-93.997 1380.266)" fill="#103110"/>
    <path id="패스_551" data-name="패스 551" d="M4585.44,9921.158c-5.587,9.441,4.363,27.072,13.8,12.328S4591.028,9911.717,4585.44,9921.158Z" transform="translate(187.25 1577.076)" fill="#103110"/>
    <path id="패스_584" data-name="패스 584" d="M4585.44,9921.158c-5.587,9.441,4.363,27.072,13.8,12.328S4591.028,9911.717,4585.44,9921.158Z" transform="translate(-164.429 1232.659)" fill="#103110"/>
    <path id="패스_562" data-name="패스 562" d="M4585.44,9921.158c-5.587,9.441,4.363,27.072,13.8,12.328S4591.028,9911.717,4585.44,9921.158Z" transform="translate(718.831 1281.389)" fill="#103110"/>
    <path id="패스_585" data-name="패스 585" d="M4585.44,9921.158c-5.587,9.441,4.363,27.072,13.8,12.328S4591.028,9911.717,4585.44,9921.158Z" transform="translate(-182.57 1331.039)" fill="#103110"/>
    <path id="패스_563" data-name="패스 563" d="M4585.44,9921.158c-5.587,9.441,4.363,27.072,13.8,12.328S4591.028,9911.717,4585.44,9921.158Z" transform="translate(655.148 1369.123)" fill="#103110"/>
    <path id="패스_577" data-name="패스 577" d="M4584.632,9919.012c-2.793,4.721,2.181,13.535,6.9,6.164S4587.426,9914.291,4584.632,9919.012Z" transform="translate(-67.257 1409.087)" fill="#103110"/>
    <path id="패스_552" data-name="패스 552" d="M4584.632,9919.012c-2.793,4.721,2.181,13.535,6.9,6.164S4587.426,9914.291,4584.632,9919.012Z" transform="translate(211.153 1571.505)" fill="#103110"/>
    <path id="패스_582" data-name="패스 582" d="M4584.632,9919.012c-2.793,4.721,2.181,13.535,6.9,6.164S4587.426,9914.291,4584.632,9919.012Z" transform="translate(-140.527 1227.088)" fill="#103110"/>
    <path id="패스_569" data-name="패스 569" d="M4584.632,9919.012c-2.793,4.721,2.181,13.535,6.9,6.164S4587.426,9914.291,4584.632,9919.012Z" transform="translate(55.809 1086.719)" fill="#103110"/>
    <path id="패스_571" data-name="패스 571" d="M4584.632,9919.012c-2.793,4.721,2.181,13.535,6.9,6.164S4587.426,9914.291,4584.632,9919.012Z" transform="translate(46.74 1264.088)" fill="#103110"/>
    <path id="패스_581" data-name="패스 581" d="M4584.632,9919.012c-2.793,4.721,2.181,13.535,6.9,6.164S4587.426,9914.291,4584.632,9919.012Z" transform="translate(-115.824 1086.719)" fill="#103110"/>
    <path id="패스_564" data-name="패스 564" d="M4584.632,9919.012c-2.793,4.721,2.181,13.535,6.9,6.164S4587.426,9914.291,4584.632,9919.012Z" transform="translate(676.761 1363.552)" fill="#103110"/>
    <g id="그룹_114" data-name="그룹 114" transform="translate(1158.434 118.012)">
      <path id="패스_458" data-name="패스 458" d="M1210.5,3476.824c-4.711-14.616,5.509-32.185,20.543-35.316-7.321-10.432-5.475-26.241,4.051-34.708,5.119-4.548,12.456-6.975,19.018-5.016s11.621,8.954,10.233,15.659c.722-3.629,4.711-5.473,8.231-6.614,9.994-3.241,21.473-5.224,30.579.017,9.018,5.19,13.138,16.115,14.256,26.459.639,5.915.479,12.11-2.022,17.507s-7.752,9.82-13.7,9.947c-1.711,10.2,3.236,22.416-3.76,30.027a17.84,17.84,0,0,1-7.317,4.452,33.459,33.459,0,0,1-34.979-8.738c2.216,2.422-22.32,4.82-24.34,4.363C1221.994,3492.764,1213.474,3486.058,1210.5,3476.824Z" transform="translate(2902.288 7507.5)" fill="#47724a"/>
      <path id="패스_459" data-name="패스 459" d="M1259.367,3508.059a30.227,30.227,0,0,1-19.923-19.842l6.886.177a20.473,20.473,0,0,0,11.095,13.023l8.461-18.066a49.159,49.159,0,0,1-10.042-25.217c1.085-1.851,3.792.225,4.746,2.147l6.212,12.523,7.733-22.5a7.375,7.375,0,0,1,4.4,1.077,26.231,26.231,0,0,0-2.477,10.513l14.4-1.787c.257,2.586-1.961,4.9-4.447,5.656s-5.159.348-7.724-.07l-1.793,7.222a109,109,0,0,1,22.83,6.23l-2.517,7.688a211.828,211.828,0,0,1-21.943-8.793l-.411,13.573a40.536,40.536,0,0,1,20.679,1.114c.8,4.894,5.805,5.923.963,4.849s-22.467-2.046-21.74.53c4.54,16.089,8.531,36.684,11.483,53.137-8.533.339-20.708,17.041-25.8,8.371C1257.555,3554.7,1258.615,3507.835,1259.367,3508.059Z" transform="translate(2891.322 7489.584)" fill="#6d492b"/>
      <path id="패스_476" data-name="패스 476" d="M1310.557,3439.365l-.472,9.373c-.124,2.457-.2,5.1,1.123,7.167,2.329,3.641,7.542,3.683,11.845,3.267a37.488,37.488,0,0,0,10.711-2.138,17.987,17.987,0,0,0,9.112-8.19,15.693,15.693,0,0,0,1.022-12.127,21.631,21.631,0,0,0-3.765-6.429,14.5,14.5,0,0,0-5.179-4.442,17.5,17.5,0,0,0-7.033-1.016C1318.242,3424.765,1311.064,3429.287,1310.557,3439.365Z" transform="translate(2865.612 7498.856)" fill="#2e662e"/>
      <path id="패스_477" data-name="패스 477" d="M1252.291,3472.426l-4.62-1.906a6.442,6.442,0,0,0-3.8-.716c-2.24.515-3.186,3.111-3.74,5.333a19.76,19.76,0,0,0-.826,5.731,9.544,9.544,0,0,0,2.493,6.01,8.393,8.393,0,0,0,5.9,2.671,11.546,11.546,0,0,0,3.894-.734,7.7,7.7,0,0,0,3.147-1.8,9.255,9.255,0,0,0,1.757-3.331C1258.253,3478.865,1257.257,3474.475,1252.291,3472.426Z" transform="translate(2891.376 7482.504)" fill="#2e662e"/>
      <path id="패스_478" data-name="패스 478" d="M1250.161,3426.47l-.17,3.368a4.329,4.329,0,0,0,.4,2.576c.837,1.309,2.711,1.323,4.257,1.174a13.457,13.457,0,0,0,3.849-.769,6.464,6.464,0,0,0,3.275-2.943,5.64,5.64,0,0,0,.367-4.359,7.772,7.772,0,0,0-1.353-2.31,5.213,5.213,0,0,0-1.861-1.6,6.293,6.293,0,0,0-2.528-.365C1252.922,3421.224,1250.343,3422.849,1250.161,3426.47Z" transform="translate(2887.488 7500.161)" fill="#2e662e"/>
      <path id="패스_479" data-name="패스 479" d="M1270.117,3451.316l-.116,1.641a1.6,1.6,0,0,0,.275,1.255c.57.637,1.844.645,2.9.571a12.373,12.373,0,0,0,2.619-.375,4.212,4.212,0,0,0,2.228-1.433,2.058,2.058,0,0,0,.25-2.123,3.741,3.741,0,0,0-.921-1.125,3.488,3.488,0,0,0-1.266-.778,5.866,5.866,0,0,0-1.72-.177C1272,3448.76,1270.241,3449.552,1270.117,3451.316Z" transform="translate(2880.196 7490.135)" fill="#2e662e"/>
      <path id="패스_480" data-name="패스 480" d="M1351.023,3483.011l-.116,1.641a1.594,1.594,0,0,0,.275,1.255c.569.637,1.844.645,2.9.572a12.432,12.432,0,0,0,2.619-.375,4.22,4.22,0,0,0,2.228-1.434,2.059,2.059,0,0,0,.25-2.123,3.764,3.764,0,0,0-.921-1.125,3.485,3.485,0,0,0-1.266-.777,5.832,5.832,0,0,0-1.72-.178C1352.9,3480.456,1351.147,3481.247,1351.023,3483.011Z" transform="translate(2850.724 7478.589)" fill="#2e662e"/>
      <path id="패스_481" data-name="패스 481" d="M1334.341,3508.986l-.115,2.792a4.283,4.283,0,0,0,.275,2.135c.57,1.085,1.844,1.1,2.9.973a7.741,7.741,0,0,0,2.619-.637,4.841,4.841,0,0,0,2.228-2.44,5.6,5.6,0,0,0,.25-3.613,6.9,6.9,0,0,0-.921-1.916,3.847,3.847,0,0,0-1.266-1.323,3.575,3.575,0,0,0-1.72-.3C1336.22,3504.636,1334.465,3505.984,1334.341,3508.986Z" transform="translate(2856.8 7469.777)" fill="#2e662e"/>
      <path id="패스_483" data-name="패스 483" d="M1300.978,3505.532l-.116,1.64a1.594,1.594,0,0,0,.275,1.255c.569.638,1.844.645,2.9.572a12.445,12.445,0,0,0,2.619-.374,4.221,4.221,0,0,0,2.228-1.434,2.06,2.06,0,0,0,.25-2.123,3.763,3.763,0,0,0-.921-1.125,3.488,3.488,0,0,0-1.266-.778,5.864,5.864,0,0,0-1.72-.178C1302.856,3502.975,1301.1,3503.768,1300.978,3505.532Z" transform="translate(2868.954 7470.385)" fill="#2e662e"/>
      <path id="패스_484" data-name="패스 484" d="M1256.771,3510.536l-.115,1.641a1.593,1.593,0,0,0,.275,1.255c.57.637,1.844.645,2.9.571a12.362,12.362,0,0,0,2.619-.375,4.215,4.215,0,0,0,2.228-1.433,2.058,2.058,0,0,0,.25-2.123,3.765,3.765,0,0,0-.92-1.126,3.5,3.5,0,0,0-1.266-.777,5.856,5.856,0,0,0-1.72-.177C1258.65,3507.98,1256.9,3508.772,1256.771,3510.536Z" transform="translate(2885.057 7468.562)" fill="#2e662e"/>
      <path id="패스_485" data-name="패스 485" d="M1280.1,3429.36l-.093,3.08a6.3,6.3,0,0,0,.223,2.356,1.874,1.874,0,0,0,2.352,1.074,5,5,0,0,0,2.127-.7,5.058,5.058,0,0,0,1.81-2.692,8.267,8.267,0,0,0,.2-3.986,8.988,8.988,0,0,0-.748-2.112,3.952,3.952,0,0,0-1.029-1.46,2.25,2.25,0,0,0-1.4-.334C1281.627,3424.562,1280.2,3426.048,1280.1,3429.36Z" transform="translate(2876.55 7498.946)" fill="#2e662e"/>
    </g>
    <g id="그룹_115" data-name="그룹 115" transform="matrix(0.899, -0.438, 0.438, 0.899, -3250.66, 3139.637)">
      <path id="패스_458-2" data-name="패스 458" d="M1265.482,3443.829c2.467-8.248-2.885-18.161-10.756-19.928,3.833-5.886,2.867-14.807-2.121-19.584-2.68-2.566-6.522-3.936-9.957-2.83a8.121,8.121,0,0,0-5.358,8.836c-.378-2.048-2.467-3.088-4.31-3.732-5.233-1.829-11.243-2.948-16.011.01-4.722,2.929-6.879,9.094-7.464,14.93a20.069,20.069,0,0,0,1.058,9.879c1.309,3.046,4.059,5.541,7.173,5.613.9,5.754-1.694,12.648,1.969,16.943a9.248,9.248,0,0,0,3.831,2.512,16.667,16.667,0,0,0,18.315-4.931c-1.16,1.367,11.686,2.72,12.744,2.462A15.211,15.211,0,0,0,1265.482,3443.829Z" transform="translate(2902.288 7507.5)" fill="#47724a"/>
      <path id="패스_459-2" data-name="패스 459" d="M1262.217,3482.884a17.056,17.056,0,0,0,11.242-11.2l-3.886.1a11.552,11.552,0,0,1-6.26,7.349l-4.775-10.194a27.738,27.738,0,0,0,5.666-14.229c-.612-1.045-2.14.127-2.678,1.211l-3.505,7.066-4.363-12.7a4.163,4.163,0,0,0-2.481.608,14.8,14.8,0,0,1,1.4,5.932l-8.128-1.009a3.31,3.31,0,0,0,2.509,3.192,9.666,9.666,0,0,0,4.358-.04l1.012,4.075a61.491,61.491,0,0,0-12.882,3.515l1.42,4.338a119.48,119.48,0,0,0,12.382-4.962l.232,7.659a22.872,22.872,0,0,0-11.669.629c-.452,2.762-3.276,3.342-.543,2.736s12.678-1.155,12.267.3c-2.562,9.078-4.814,20.7-6.48,29.984,4.815.191,12.509,1.53,15.382-3.362C1264.063,3501.117,1262.641,3482.758,1262.217,3482.884Z" transform="translate(2885.874 7475.96)" fill="#6d492b"/>
      <path id="패스_476-2" data-name="패스 476" d="M1329.273,3433.031l.266,5.289a6.793,6.793,0,0,1-.634,4.044c-1.314,2.054-4.256,2.078-6.684,1.843a21.168,21.168,0,0,1-6.044-1.207,10.15,10.15,0,0,1-5.142-4.622,8.855,8.855,0,0,1-.577-6.843,12.208,12.208,0,0,1,2.124-3.628,8.184,8.184,0,0,1,2.922-2.506,9.88,9.88,0,0,1,3.969-.573C1324.937,3424.792,1328.986,3427.344,1329.273,3433.031Z" transform="translate(2807.095 7492.284)" fill="#2e662e"/>
      <path id="패스_477-2" data-name="패스 477" d="M1242.124,3471.246l2.607-1.076a3.636,3.636,0,0,1,2.142-.4c1.264.291,1.8,1.755,2.11,3.01a11.146,11.146,0,0,1,.466,3.234,5.385,5.385,0,0,1-1.407,3.391,4.736,4.736,0,0,1-3.332,1.507,6.52,6.52,0,0,1-2.2-.414,4.348,4.348,0,0,1-1.776-1.013,5.217,5.217,0,0,1-.991-1.88C1238.759,3474.879,1239.321,3472.4,1242.124,3471.246Z" transform="translate(2909.104 7463.497)" fill="#2e662e"/>
      <path id="패스_478-2" data-name="패스 478" d="M1256.886,3424.194l.1,1.9a2.442,2.442,0,0,1-.228,1.454c-.472.739-1.53.747-2.4.663a7.6,7.6,0,0,1-2.172-.434,3.649,3.649,0,0,1-1.848-1.661,3.183,3.183,0,0,1-.207-2.459,4.382,4.382,0,0,1,.763-1.3,2.94,2.94,0,0,1,1.05-.9,3.553,3.553,0,0,1,1.426-.206C1255.328,3421.234,1256.783,3422.151,1256.886,3424.194Z" transform="translate(2897.995 7494.581)" fill="#2e662e"/>
      <path id="패스_479-2" data-name="패스 479" d="M1274.693,3450.207l.065.926a.9.9,0,0,1-.155.708c-.321.359-1.041.364-1.634.322a6.979,6.979,0,0,1-1.478-.211,2.378,2.378,0,0,1-1.257-.809,1.161,1.161,0,0,1-.141-1.2,2.112,2.112,0,0,1,.519-.635,1.968,1.968,0,0,1,.714-.439,3.316,3.316,0,0,1,.97-.1C1273.633,3448.765,1274.623,3449.212,1274.693,3450.207Z" transform="translate(2873.557 7476.93)" fill="#2e662e"/>
      <path id="패스_480-2" data-name="패스 480" d="M1355.6,3481.9l.065.926a.9.9,0,0,1-.155.708c-.321.359-1.041.364-1.634.323a7.009,7.009,0,0,1-1.478-.211,2.381,2.381,0,0,1-1.257-.809,1.162,1.162,0,0,1-.141-1.2,2.124,2.124,0,0,1,.519-.635,1.968,1.968,0,0,1,.715-.438,3.291,3.291,0,0,1,.97-.1C1354.539,3480.46,1355.529,3480.907,1355.6,3481.9Z" transform="translate(2766.336 7456.604)" fill="#2e662e"/>
      <path id="패스_481-2" data-name="패스 481" d="M1338.918,3507.1l.065,1.576a2.418,2.418,0,0,1-.155,1.205c-.322.612-1.041.619-1.634.549a4.365,4.365,0,0,1-1.478-.359,2.732,2.732,0,0,1-1.257-1.377,3.161,3.161,0,0,1-.141-2.039,3.89,3.89,0,0,1,.52-1.081,2.169,2.169,0,0,1,.714-.746,2.02,2.02,0,0,1,.97-.171A2.248,2.248,0,0,1,1338.918,3507.1Z" transform="translate(2788.096 7441.092)" fill="#2e662e"/>
      <path id="패스_483-2" data-name="패스 483" d="M1305.554,3504.423l.065.925a.9.9,0,0,1-.155.708c-.321.36-1.04.364-1.634.323a7.057,7.057,0,0,1-1.478-.211,2.382,2.382,0,0,1-1.257-.809,1.162,1.162,0,0,1-.141-1.2,2.125,2.125,0,0,1,.519-.635,1.969,1.969,0,0,1,.715-.439,3.3,3.3,0,0,1,.97-.1C1304.494,3502.98,1305.484,3503.427,1305.554,3504.423Z" transform="translate(2832.491 7442.162)" fill="#2e662e"/>
      <path id="패스_484-2" data-name="패스 484" d="M1261.348,3509.427l.065.926a.9.9,0,0,1-.155.708c-.321.359-1.041.364-1.634.322a6.959,6.959,0,0,1-1.478-.211,2.38,2.38,0,0,1-1.257-.809,1.161,1.161,0,0,1-.141-1.2,2.126,2.126,0,0,1,.519-.635,1.978,1.978,0,0,1,.715-.438,3.308,3.308,0,0,1,.97-.1C1260.287,3507.985,1261.277,3508.432,1261.348,3509.427Z" transform="translate(2891.315 7438.953)" fill="#2e662e"/>
      <path id="패스_485-2" data-name="패스 485" d="M1283.818,3427.278l.053,1.738a3.555,3.555,0,0,1-.126,1.329,1.057,1.057,0,0,1-1.327.606,2.82,2.82,0,0,1-1.2-.4,2.855,2.855,0,0,1-1.021-1.519,4.665,4.665,0,0,1-.114-2.249,5.07,5.07,0,0,1,.422-1.192,2.228,2.228,0,0,1,.58-.823,1.269,1.269,0,0,1,.788-.189C1282.957,3424.571,1283.761,3425.409,1283.818,3427.278Z" transform="translate(2861.105 7492.441)" fill="#2e662e"/>
    </g>
  </g>
</svg>
