<svg xmlns="http://www.w3.org/2000/svg" width="161.686" height="144.944" viewBox="0 0 161.686 144.944">
  <defs>
    <style>
      .cls-1 {
        fill: #9b9b9b;
      }
    </style>
  </defs>
  <g id="그룹_9" data-name="그룹 9" transform="translate(3270.843 3963.894)">
    <path id="패스_89" data-name="패스 89" class="cls-1" d="M-3109.157-3850.082c-.74,2.942-1.246,5.967-2.258,8.813a33.988,33.988,0,0,1-30.047,22.161q-2.991.147-5.988.151-43.848.014-87.7.006a34.592,34.592,0,0,1-16.168-3.487c-11.788-6.082-18.595-15.758-19.217-29-.557-11.856-.213-23.758-.135-35.639a7.9,7.9,0,0,1,7.9-7.813,8.06,8.06,0,0,1,8.079,7.493c.056.626.045,1.26.045,1.89q0,15.694,0,31.388c.012,11.207,7.831,19.092,19.02,19.1q45.661.031,91.323,0c9.981-.005,17.366-6.241,18.9-15.918a21.341,21.341,0,0,0,.152-3.3q.015-16.008.007-32.018c0-3.5,1.381-6.227,4.592-7.818a7.943,7.943,0,0,1,10.918,4.349c.185.488.377.973.566,1.46Z"/>
    <path id="패스_90" data-name="패스 90" class="cls-1" d="M-3168.846-3913.107v2.159q0,22.712,0,45.422c0,5.009-2.442,8.434-6.829,9.535a12.4,12.4,0,0,1-2.965.279q-11.277.033-22.553.008c-6.172-.013-9.807-3.631-9.814-9.8q-.024-22.79,0-45.579v-2.024c-.8,0-1.417,0-2.034,0-4.889-.016-9.783.116-14.664-.094a6.49,6.49,0,0,1-5.692-9.193,8.94,8.94,0,0,1,1.915-2.66q18.142-18.213,36.34-36.37c3.291-3.287,7.128-3.295,10.415-.014,12.129,12.107,24.208,24.266,36.374,36.337,4.268,4.235,2.477,9.933-1.783,11.49a10.441,10.441,0,0,1-3.4.483c-4.468.052-8.937.021-13.405.021Z"/>
  </g>
</svg>
